<svg width="39" height="49" viewBox="0 0 39 49" fill="none" xmlns="http://www.w3.org/2000/svg">
<path fill-rule="evenodd" clip-rule="evenodd" d="M1.10059 4.50802V41.8215C1.10059 39.641 2.93809 37.8648 5.16759 37.8648H37.8996V0.55127H5.16759C2.93809 0.55127 1.10059 2.33977 1.10059 4.50802Z" fill="#31A9A8"/>
<path d="M37.3483 0.55125C37.3483 0.245 37.5933 0 37.8996 0C38.2058 0 38.4508 0.245 38.4508 0.55125V37.8648C38.4508 38.171 38.2058 38.416 37.8996 38.416C37.5933 38.416 37.3483 38.171 37.3483 37.8648V0.55125ZM1.65182 41.8215C1.65182 42.1278 1.40682 42.3728 1.10057 42.3728C0.794316 42.3728 0.549316 42.1278 0.549316 41.8215V4.508C0.549316 4.214 0.794316 3.95675 1.10057 3.95675C1.40682 3.95675 1.65182 4.214 1.65182 4.508V41.8215Z" fill="black"/>
<path fill-rule="evenodd" clip-rule="evenodd" d="M37.8996 37.8647H5.16759C2.93809 37.8647 1.10059 39.641 1.10059 41.8215C1.10059 43.9897 2.93809 45.7782 5.16759 45.7782H17.6626H37.8996C35.6578 45.7782 33.8326 43.9897 33.8326 41.8215C33.8326 39.641 35.6578 37.8647 37.8996 37.8647Z" fill="#F3AF5A"/>
<path d="M37.8996 45.227C38.2058 45.227 38.4508 45.472 38.4508 45.7782C38.4508 46.0845 38.2058 46.3417 37.8996 46.3417H5.16757C3.90582 46.3417 2.75432 45.8272 1.90907 45.0065C1.06382 44.1857 0.549316 43.0587 0.549316 41.8215C0.549316 40.572 1.07607 39.445 1.90907 38.6242C2.75432 37.8157 3.90582 37.3135 5.16757 37.3135H37.8996C38.2058 37.3135 38.4508 37.5585 38.4508 37.8647C38.4508 38.171 38.2058 38.416 37.8996 38.416H5.16757C4.19982 38.416 3.31782 38.7957 2.68082 39.4205C2.05607 40.033 1.65182 40.8905 1.65182 41.8215C1.65182 42.7525 2.05607 43.61 2.68082 44.2225C3.31782 44.835 4.19982 45.227 5.16757 45.227H37.8996Z" fill="black"/>
<path d="M1.65182 4.508C1.65182 4.81425 1.40682 5.05925 1.10057 5.05925C0.794316 5.05925 0.549316 4.81425 0.549316 4.508C0.549316 3.27075 1.06382 2.1315 1.90907 1.323C2.75432 0.50225 3.90582 0 5.16757 0H37.8996C38.2058 0 38.4508 0.245 38.4508 0.55125C38.4508 0.8575 38.2058 1.1025 37.8996 1.1025H5.16757C4.19982 1.1025 3.31782 1.48225 2.68082 2.107C2.04382 2.73175 1.65182 3.577 1.65182 4.508Z" fill="black"/>
<path d="M37.8995 46.3172C36.6378 46.3172 35.474 45.815 34.641 45.0065C33.808 44.1857 33.2812 43.0587 33.2812 41.8215C33.2812 40.572 33.808 39.445 34.641 38.6242C35.474 37.8157 36.6378 37.3135 37.8995 37.3135V38.416C36.9318 38.416 36.0375 38.7957 35.4128 39.4205C34.7758 40.033 34.3838 40.8782 34.3838 41.8215C34.3838 42.7525 34.7758 43.61 35.4128 44.2225C36.0375 44.835 36.9318 45.2147 37.8995 45.2147V46.3172Z" fill="black"/>
<path d="M33.8327 41.2578C34.1389 41.2578 34.3839 41.5151 34.3839 41.8213C34.3839 42.1276 34.1389 42.3726 33.8327 42.3726H6.71116C6.41716 42.3726 6.15991 42.1276 6.15991 41.8213C6.15991 41.5151 6.41716 41.2578 6.71116 41.2578H33.8327Z" fill="black"/>
<path fill-rule="evenodd" clip-rule="evenodd" d="M8.8916 41.8213H17.6626V48.4485L13.3751 45.778L8.8916 48.4485V41.8213Z" fill="#256EA3"/>
<path d="M8.89158 41.2578H17.6626C17.9688 41.2578 18.2138 41.5151 18.2138 41.8213V48.4486C18.2138 48.7548 17.9688 48.9998 17.6626 48.9998C17.5523 48.9998 17.4421 48.9631 17.3441 48.9018L13.3628 46.4273L9.17333 48.9263C8.91608 49.0733 8.57308 48.9876 8.42608 48.7303C8.36483 48.6446 8.34033 48.5466 8.34033 48.4486V41.8213C8.34033 41.5151 8.58533 41.2578 8.89158 41.2578ZM17.1113 42.3726H9.44283V47.4808L13.0566 45.3126C13.2403 45.2023 13.4731 45.1901 13.6568 45.3003L17.1113 47.4563V42.3726Z" fill="black"/>
<path d="M5.87803 23.1647L8.65878 15.631C8.94053 14.8592 9.43053 14.4795 10.141 14.4795C10.8393 14.4795 11.3415 14.8592 11.611 15.631L14.3305 23.1647C14.404 23.3607 14.4408 23.5322 14.4408 23.667C14.4408 23.9365 14.3428 24.157 14.159 24.3285C13.9753 24.5 13.7425 24.5735 13.4853 24.5735C12.9708 24.5735 12.6278 24.3407 12.4808 23.863L12.052 22.5645H8.23003L7.80128 23.8507C7.65428 24.3407 7.31128 24.5735 6.79678 24.5735C6.52728 24.5735 6.28228 24.4877 6.08628 24.304C5.87803 24.1202 5.78003 23.8997 5.78003 23.618C5.78003 23.569 5.80453 23.422 5.87803 23.1647ZM10.1288 16.6355L8.81803 20.6535H11.4395L10.1533 16.6355H10.1288ZM16.4375 23.4465V15.68C16.4375 15.3615 16.5355 15.1042 16.7438 14.9205C16.952 14.7367 17.2215 14.651 17.54 14.651H20.186C21.3375 14.651 22.146 15.1287 22.587 16.072C22.7218 16.366 22.7953 16.709 22.7953 17.0887C22.7953 18.032 22.3665 18.718 21.4968 19.11V19.1467C22.1215 19.2325 22.6115 19.502 23.0158 19.9307C23.4078 20.3595 23.6038 20.8862 23.6038 21.511C23.6038 22.4665 23.3098 23.2015 22.7095 23.7405C22.146 24.2427 21.362 24.5 20.3943 24.5H17.5523C17.2338 24.5 16.952 24.402 16.7438 24.206C16.5355 24.01 16.4375 23.765 16.4375 23.4465ZM18.52 16.464V18.5587H19.598C19.941 18.5587 20.2105 18.4607 20.4065 18.2647C20.6148 18.0687 20.7128 17.7992 20.7128 17.4685C20.7128 16.7947 20.333 16.464 19.598 16.464H18.52ZM18.52 20.3717V22.6747H20.1493C20.529 22.6747 20.8353 22.5645 21.0803 22.3562C21.3253 22.148 21.4478 21.8417 21.4478 21.462C21.4478 20.7392 20.9578 20.3717 19.9778 20.3717H18.52ZM25.3433 19.5755C25.3433 18.1177 25.7843 16.8927 26.6663 15.9372C27.5605 14.9695 28.6998 14.4795 30.0963 14.4795C31.2968 14.4795 32.191 14.749 32.7668 15.2757C32.975 15.4717 33.0853 15.7167 33.0853 16.0352C33.0853 16.2925 32.9995 16.513 32.8525 16.6845C32.6933 16.8682 32.485 16.954 32.2278 16.954C32.1053 16.954 31.799 16.8805 31.3213 16.709C30.8313 16.5497 30.427 16.464 30.0963 16.464C29.2633 16.464 28.6018 16.7947 28.124 17.4685C27.7198 18.032 27.5115 18.7547 27.5115 19.6122C27.5115 20.482 27.732 21.1925 28.173 21.7437C28.663 22.3685 29.3123 22.6747 30.0963 22.6747C30.4393 22.6747 30.8558 22.5767 31.3458 22.3685C31.848 22.1847 32.1665 22.0867 32.3135 22.0867C32.73 22.0867 33.0118 22.295 33.171 22.736C33.2078 22.8462 33.22 22.932 33.22 23.03C33.22 23.6057 32.828 24.0467 32.044 24.3407C31.4683 24.549 30.819 24.6592 30.0963 24.6592C28.6875 24.6592 27.536 24.157 26.6418 23.1402C25.772 22.1725 25.3433 20.9842 25.3433 19.5755Z" fill="#23436A"/>
<path d="M34.2369 27.0234C34.5432 27.0234 34.7882 27.2684 34.7882 27.5747C34.7882 27.8809 34.5432 28.1259 34.2369 28.1259H4.76341C4.45716 28.1259 4.21216 27.8809 4.21216 27.5747C4.21216 27.2684 4.45716 27.0234 4.76341 27.0234H34.2369Z" fill="#23436A"/>
<path d="M25.3433 29.4736C25.6496 29.4736 25.8946 29.7186 25.8946 30.0249C25.8946 30.3311 25.6496 30.5761 25.3433 30.5761H13.9753C13.6691 30.5761 13.4241 30.3311 13.4241 30.0249C13.4241 29.7186 13.6691 29.4736 13.9753 29.4736H25.3433Z" fill="#23436A"/>
<path d="M34.2369 11.0493C34.5432 11.0493 34.7882 11.2943 34.7882 11.6006C34.7882 11.9068 34.5432 12.1518 34.2369 12.1518H4.76341C4.45716 12.1518 4.21216 11.9191 4.21216 11.6006C4.21216 11.2943 4.45716 11.0493 4.76341 11.0493H34.2369Z" fill="#23436A"/>
<path d="M25.3433 8.59961C25.6496 8.59961 25.8946 8.84461 25.8946 9.15086C25.8946 9.45711 25.6496 9.70211 25.3433 9.70211H13.9753C13.6691 9.70211 13.4241 9.45711 13.4241 9.15086C13.4241 8.84461 13.6691 8.59961 13.9753 8.59961H25.3433Z" fill="#23436A"/>
</svg>
