<svg width="49" height="49" viewBox="0 0 49 49" fill="none" xmlns="http://www.w3.org/2000/svg">
<path fill-rule="evenodd" clip-rule="evenodd" d="M22.8096 22.8096L0.539062 0.539062V16.7826L13.1811 29.4246C15.1043 25.8843 18.6446 23.3608 22.8096 22.8096Z" fill="#31A9A8"/>
<path d="M0.759521 7.20312L17.7135 24.3776L16.0108 26.0436L0.771771 10.5841L0.759521 7.20312Z" fill="#256EA3"/>
<path d="M23.3852 22.6251C23.5935 22.8334 23.5935 23.1764 23.3852 23.3846C23.177 23.5929 22.834 23.5929 22.6257 23.3846L1.078 1.83688V16.5614L13.5607 29.0441C13.769 29.2524 13.769 29.5954 13.5607 29.8036C13.3525 30.0119 13.0095 30.0119 12.8012 29.8036L0.15925 17.1616C0.06125 17.0636 0 16.9289 0 16.7819V0.538379C0 0.391379 0.049 0.256629 0.15925 0.158629C0.3675 -0.0496211 0.7105 -0.0496211 0.91875 0.158629L23.3852 22.6251Z" fill="black"/>
<path fill-rule="evenodd" clip-rule="evenodd" d="M26.1904 22.8096L48.4609 0.539062V16.7826L35.8189 29.4246C33.8834 25.8843 30.3554 23.3608 26.1904 22.8096Z" fill="#31A9A8"/>
<path d="M48.8286 9.98403L32.9894 26.0438L31.2866 24.3778L48.8286 6.60303V9.98403Z" fill="#256EA3"/>
<path d="M26.3742 23.3856C26.1659 23.5939 25.8229 23.5939 25.6147 23.3856C25.4064 23.1774 25.4064 22.8344 25.6147 22.6261L48.0812 0.159605C48.2894 -0.0486445 48.6324 -0.0486445 48.8407 0.159605C48.9509 0.257605 48.9999 0.392356 48.9999 0.539356V16.7829C48.9999 16.9299 48.9387 17.0646 48.8407 17.1626L36.1987 29.8046C35.9904 30.0129 35.6474 30.0129 35.4392 29.8046C35.2309 29.5964 35.2309 29.2534 35.4392 29.0451L47.9219 16.5624V1.83786L26.3742 23.3856Z" fill="black"/>
<path d="M24.5 48.4614C31.6105 48.4614 37.3747 42.6972 37.3747 35.5867C37.3747 28.4761 31.6105 22.7119 24.5 22.7119C17.3895 22.7119 11.6252 28.4761 11.6252 35.5867C11.6252 42.6972 17.3895 48.4614 24.5 48.4614Z" fill="#F3AF5A"/>
<path d="M24.5 22.1602C28.1995 22.1602 31.556 23.6669 33.9815 26.0924C36.4192 28.5179 37.9137 31.8744 37.9137 35.5862C37.9137 39.2857 36.4192 42.6422 33.9815 45.0677C31.556 47.4932 28.1995 48.9999 24.5 48.9999C20.8005 48.9999 17.4317 47.4932 15.0062 45.0677C12.5807 42.6422 11.074 39.2857 11.074 35.5862C11.074 31.8744 12.5807 28.5179 15.0062 26.0924C17.4317 23.6669 20.8005 22.1602 24.5 22.1602ZM33.222 26.8519C30.9925 24.6224 27.9055 23.2382 24.5 23.2382C21.0945 23.2382 18.0075 24.6224 15.7657 26.8519C13.5362 29.0814 12.152 32.1684 12.152 35.5862C12.152 38.9917 13.5362 42.0787 15.7657 44.3082C18.0075 46.5377 21.0945 47.9219 24.5 47.9219C27.9055 47.9219 30.9925 46.5377 33.222 44.3082C35.4515 42.0787 36.8357 38.9917 36.8357 35.5862C36.8357 32.1684 35.4515 29.0814 33.222 26.8519Z" fill="black"/>
<path d="M17.5052 36.7379C16.954 36.1867 16.954 35.2802 17.5052 34.7289C18.0565 34.1777 18.963 34.1777 19.5142 34.7289L22.4052 37.6199L29.4857 30.5394C30.037 29.9882 30.9312 29.9882 31.4947 30.5394C32.046 31.0907 32.046 31.9849 31.4947 32.5362L24.6837 39.3472C22.932 41.0989 22.2337 41.4542 20.5432 39.7759L17.5052 36.7379Z" fill="#256EA3"/>
</svg>
