<svg width="49" height="49" viewBox="0 0 49 49" fill="none" xmlns="http://www.w3.org/2000/svg">
<path fill-rule="evenodd" clip-rule="evenodd" d="M9.44482 30.4904C17.6891 39.0164 31.3111 39.0164 39.5553 30.4904V24.4389V19.9432V14.5654L24.5001 21.3152L9.44482 14.5654V19.9432V24.4389V30.4904Z" fill="#31A9A8"/>
<path fill-rule="evenodd" clip-rule="evenodd" d="M9.44482 24.4386C17.6891 32.9646 31.3111 32.9646 39.5553 24.4386V19.9429C31.3111 28.4689 17.6891 28.4689 9.44482 19.9429V24.4386Z" fill="#256EA3"/>
<path d="M9.81239 19.5635C13.8304 23.7162 19.1714 25.7987 24.5001 25.7987C29.8289 25.7987 35.1699 23.7162 39.1879 19.5635L39.9229 20.323C35.6966 24.6962 30.0984 26.8767 24.5001 26.8767C18.9019 26.8767 13.3036 24.6962 9.07739 20.323L9.81239 19.5635Z" fill="#23436A"/>
<path d="M9.81239 24.0591C13.8304 28.2118 19.1714 30.2943 24.5001 30.2943C29.8289 30.2943 35.1699 28.2118 39.1879 24.0591L39.9229 24.8186C35.6966 29.1796 30.0984 31.3723 24.5001 31.3723C18.9019 31.3723 13.3036 29.1796 9.07739 24.8186L9.81239 24.0591Z" fill="#23436A"/>
<path d="M9.95922 14.5654V30.2577C13.965 34.3124 19.2325 36.3459 24.5 36.3459C29.7675 36.3459 35.035 34.3124 39.0285 30.2699V14.5654H40.0697V30.0004C40.0697 30.5149 40.0207 30.7722 39.7145 31.0784C35.525 35.3047 30.0002 37.4239 24.5 37.4239C19.0732 37.4239 13.6465 35.3659 9.46922 31.2622C9.02822 30.8334 8.93022 30.4782 8.93022 29.9514L8.91797 14.5654H9.95922Z" fill="black"/>
<path fill-rule="evenodd" clip-rule="evenodd" d="M24.5001 21.3151L37.5341 15.6678L45.2761 12.3113L48.4611 10.9271L24.5001 0.539062L0.539062 10.9271L11.4661 15.6678L24.5001 21.3151Z" fill="#256EA3"/>
<path d="M48.6813 11.417L24.7081 21.805C24.5733 21.8662 24.4141 21.8662 24.2916 21.805L0.318317 11.417C0.0488173 11.3067 -0.0736827 10.9882 0.0488173 10.7188C0.0978173 10.584 0.208067 10.486 0.318317 10.437L24.2916 0.03675C24.4263 -0.01225 24.5856 -0.01225 24.7081 0.03675L48.6813 10.437C48.9508 10.5472 49.0733 10.8657 48.9508 11.1353C48.9018 11.27 48.7916 11.368 48.6813 11.417ZM24.4998 20.727L47.1133 10.927L24.4998 1.11475L1.88632 10.927L24.4998 20.727Z" fill="black"/>
<path d="M24.2918 11.417C24.01 11.3068 23.8875 10.9883 24.01 10.7188C24.1203 10.437 24.4388 10.3145 24.7083 10.437L37.0195 15.7658V48.461C37.0195 48.7673 36.7745 49 36.4805 49C36.1865 49 35.9415 48.7673 35.9415 48.461V16.4763L24.2918 11.417Z" fill="#23436A"/>
<path d="M36.4807 48.4608C38.5103 48.4608 40.1557 46.8155 40.1557 44.7858C40.1557 42.7562 38.5103 41.1108 36.4807 41.1108C34.451 41.1108 32.8057 42.7562 32.8057 44.7858C32.8057 46.8155 34.451 48.4608 36.4807 48.4608Z" fill="#F3AF5A"/>
<path d="M36.4806 40.5723C37.6444 40.5723 38.6978 41.05 39.4573 41.8095C40.2168 42.569 40.6946 43.6225 40.6946 44.7863C40.6946 45.95 40.2168 47.0035 39.4573 47.763C38.6978 48.5225 37.6444 49.0003 36.4806 49.0003C35.3169 49.0003 34.2634 48.5225 33.5039 47.763C32.7444 47.0035 32.2666 45.95 32.2666 44.7863C32.2666 43.6225 32.7444 42.569 33.5039 41.8095C34.2634 41.05 35.3169 40.5723 36.4806 40.5723ZM38.6978 42.569C38.1344 42.0055 37.3504 41.6503 36.4806 41.6503C35.6109 41.6503 34.8269 42.0055 34.2634 42.569C33.6999 43.1325 33.3446 43.9288 33.3446 44.7863C33.3446 45.656 33.6999 46.44 34.2634 47.0035C34.8269 47.567 35.6109 47.9223 36.4806 47.9223C37.3504 47.9223 38.1344 47.567 38.6978 47.0035C39.2613 46.44 39.6166 45.656 39.6166 44.7863C39.6166 43.9288 39.2613 43.1325 38.6978 42.569Z" fill="black"/>
</svg>
